<?xml version="1.0" encoding="utf-8"?>
<svg viewBox="0 0 1000 600" width="1000px" height="600px" xmlns="http://www.w3.org/2000/svg">
  <path d="M 283.596 182.944 Q 288.255 182.586 298.291 182.227 Q 308.326 181.869 319.436 181.69 Q 330.547 181.51 340.761 181.331 Q 350.975 181.152 356.71 181.152 Q 391.475 181.152 413.875 188.32 Q 436.275 195.488 450.969 208.032 Q 469.964 224.518 478.566 249.965 Q 487.167 275.411 487.167 306.234 Q 487.167 329.53 481.254 350.854 Q 475.34 372.179 460.108 388.307 Q 444.876 404.435 418.175 413.933 Q 391.475 423.43 349.9 423.43 Q 334.847 423.43 317.644 422.355 Q 300.441 421.28 283.596 419.488 Z M 359.935 389.382 Q 403.302 389.382 423.193 368.595 Q 443.084 347.808 443.084 300.858 Q 443.084 279.712 438.963 263.763 Q 434.841 247.814 424.806 237.062 Q 414.771 226.31 397.926 220.934 Q 381.081 215.558 355.993 215.558 Q 350.975 215.558 342.553 215.558 Q 334.131 215.558 324.812 215.917 L 324.812 387.949 Q 334.847 388.666 344.166 389.024 Q 353.484 389.382 359.935 389.382 Z M 703.277 233.837 Q 691.808 225.952 675.86 221.114 Q 659.911 216.275 639.482 216.275 Q 620.128 216.275 606.33 222.368 Q 592.532 228.461 583.93 239.571 Q 575.328 250.682 571.207 266.272 Q 567.085 281.862 567.085 300.858 Q 567.085 344.224 585.543 366.445 Q 604 388.666 638.765 388.666 Q 660.269 388.666 678.01 382.214 Q 695.751 375.763 707.22 366.445 L 717.972 401.926 Q 703.636 410.528 683.386 417.158 Q 663.136 423.789 637.69 423.789 Q 608.301 423.789 586.797 414.112 Q 565.293 404.435 551.136 387.949 Q 536.98 371.462 530.17 349.779 Q 523.36 328.096 523.36 303.725 Q 523.36 278.278 530.887 256.058 Q 538.413 233.837 553.287 217.171 Q 568.16 200.506 590.202 190.829 Q 612.244 181.152 641.632 181.152 Q 660.986 181.152 680.34 185.274 Q 699.693 189.395 713.671 196.563 Z" style="white-space: pre; stroke-width: 2px; fill: rgb(244, 244, 244); stroke: rgb(58, 58, 58);"/>
</svg>